HIERARCHY
ROOT Hips
{
	OFFSET 53.592300 -27.325912 86.742592
	CHANNELS 6 Xposition Yposition Zposition Xrotation Yrotation Zrotation
	JOINT spine
	{
		OFFSET 0.000000 -0.393702 6.846367
		CHANNELS 3 Xrotation Yrotation Zrotation
		JOINT spine1
		{
			OFFSET 0.000000 -0.000002 9.496208
			CHANNELS 3 Xrotation Yrotation Zrotation
			JOINT spine2
			{
				OFFSET 0.000000 -0.000002 9.099091
				CHANNELS 3 Xrotation Yrotation Zrotation
				JOINT Neck
				{
					OFFSET 0.000000 -1.113783 23.361214
					CHANNELS 3 Xrotation Yrotation Zrotation
					JOINT Head
					{
						OFFSET 0.000000 0.000000 7.058014
						CHANNELS 3 Xrotation Yrotation Zrotation
						End Site
						{
							OFFSET 0.000000 5.634186 17.084396
						}
					}
				}
				JOINT RightShoulder
				{
					OFFSET -3.831360 0.533491 9.826309
					CHANNELS 3 Xrotation Yrotation Zrotation
					JOINT RightArm
					{
						OFFSET 0.000000 -0.000004 12.888115
						CHANNELS 3 Xrotation Yrotation Zrotation
						JOINT RightArmRoll
						{
							OFFSET 0.000000 0.000000 6.506165
							CHANNELS 3 Xrotation Yrotation Zrotation
							JOINT RightForeArm
							{
								OFFSET 0.000000 -0.000004 18.950104
								CHANNELS 3 Xrotation Yrotation Zrotation
								JOINT RightForeArmRoll
								{
									OFFSET 0.000000 0.000000 7.300934
									CHANNELS 3 Xrotation Yrotation Zrotation
									JOINT RightHand
									{
										OFFSET 0.000000 -0.000004 14.651398
										CHANNELS 3 Xrotation Yrotation Zrotation
										End Site
										{
											OFFSET 0.000000 0.000000 0.100006
										}
									}
								}
							}
						}
					}
				}
				JOINT LeftShoulder
				{
					OFFSET 3.831360 0.533491 9.826309
					CHANNELS 3 Xrotation Yrotation Zrotation
					JOINT LeftArm
					{
						OFFSET 0.000000 -0.000004 12.888115
						CHANNELS 3 Xrotation Yrotation Zrotation
						JOINT LeftArmRoll
						{
							OFFSET 0.000000 0.000000 6.506165
							CHANNELS 3 Xrotation Yrotation Zrotation
							JOINT LeftForeArm
							{
								OFFSET 0.000000 -0.000004 18.950104
								CHANNELS 3 Xrotation Yrotation Zrotation
								JOINT LeftForeArmRoll
								{
									OFFSET 0.000000 0.000000 7.300919
									CHANNELS 3 Xrotation Yrotation Zrotation
									JOINT LeftHand
									{
										OFFSET 0.000000 -0.000004 14.651398
										CHANNELS 3 Xrotation Yrotation Zrotation
										End Site
										{
											OFFSET 0.000000 0.000000 0.100006
										}
									}
								}
							}
						}
					}
				}
			}
		}
	}
	JOINT RightUpLeg
	{
		OFFSET -6.068371 0.933477 -1.112778
		CHANNELS 3 Xrotation Yrotation Zrotation
		JOINT RightUpLegRoll
		{
			OFFSET 0.000000 -0.000004 17.179596
			CHANNELS 3 Xrotation Yrotation Zrotation
			JOINT RightLeg
			{
				OFFSET 0.000000 0.000004 -21.274300
				CHANNELS 3 Xrotation Yrotation Zrotation
				JOINT RightLegRoll
				{
					OFFSET 0.000000 -0.000004 21.343903
					CHANNELS 3 Xrotation Yrotation Zrotation
					JOINT RightFoot
					{
						OFFSET 0.000000 -0.000002 17.765198
						CHANNELS 3 Xrotation Yrotation Zrotation
						JOINT RightToeBase
						{
							OFFSET 0.000000 -0.000004 14.850815
							CHANNELS 3 Xrotation Yrotation Zrotation
							End Site
							{
								OFFSET 0.006294 0.829004 7.192123
							}
						}
					}
				}
			}
		}
	}
	JOINT LeftUpLeg
	{
		OFFSET 6.068371 0.933477 -1.112778
		CHANNELS 3 Xrotation Yrotation Zrotation
		JOINT LeftUpLegRoll
		{
			OFFSET 0.000000 -0.000004 17.179703
			CHANNELS 3 Xrotation Yrotation Zrotation
			JOINT LeftLeg
			{
				OFFSET 0.000000 -0.000004 21.274200
				CHANNELS 3 Xrotation Yrotation Zrotation
				JOINT LeftLegRoll
				{
					OFFSET 0.000000 -0.000002 21.541206
					CHANNELS 3 Xrotation Yrotation Zrotation
					JOINT LeftFoot
					{
						OFFSET 0.000000 -0.000004 17.567902
						CHANNELS 3 Xrotation Yrotation Zrotation
						JOINT LeftToeBase
						{
							OFFSET 0.000000 -0.000002 14.850800
							CHANNELS 3 Xrotation Yrotation Zrotation
							End Site
							{
								OFFSET -0.028210 0.829002 7.192123
							}
						}
					}
				}
			}
		}
	}
}
MOTION
Frames: 10
Frame Time: 0.041667
52.896404 -4.626068 63.426014 42.527514 -6.104804 -5.063197 0.989206 0.724935 0.548257 5.974748 1.470691 1.081727 7.619932 1.483509 1.064036 -7.663391 21.954581 -0.563185 13.808379 -18.187242 -2.484938 -9.245550 -37.232447 -9.293932 138.048000 -41.839744 74.949373 0.000005 0.000014 -0.000006 51.425222 -7.920779 12.858970 0.000002 0.000008 -2.999993 -5.000203 -7.999253 0.000019 -16.609304 56.878615 19.582714 -70.176123 132.378683 132.197847 -0.000001 -0.000004 0.000013 66.273278 13.680977 -15.168073 -0.000005 -0.000010 3.000001 -5.000159 8.000108 -0.000108 -109.893058 -171.198050 0.413090 179.999964 -0.000005 -0.645995 104.018146 -6.794136 -6.207727 0.000002 0.000000 1.507870 73.508203 8.420922 -2.688183 25.456957 -7.355615 0.000003 -107.788001 166.272021 -1.790352 -0.000022 -0.000003 -0.287000 -79.418079 7.294563 8.972056 -0.000004 0.000003 -0.162500 77.880966 -7.617213 1.053615 25.456856 7.355629 0.000008 
52.896202 -4.678986 63.515823 42.562812 -6.110212 -5.065155 0.991050 0.720895 0.547394 5.978454 1.463859 1.081056 7.623651 1.476667 1.063443 -7.698578 21.932169 -0.556300 13.807667 -18.161500 -2.484776 -9.230388 -37.235032 -9.273636 137.968401 -41.743500 75.029751 0.000006 0.000012 -0.000006 51.341610 -8.111706 12.907545 0.000000 0.000007 -2.999994 -5.000206 -7.999255 0.000024 -16.630741 56.919877 19.608983 -70.143051 132.465044 131.983639 -0.000001 -0.000003 0.000014 66.167164 13.879556 -15.268405 -0.000006 -0.000008 2.999998 -5.000153 8.000112 -0.000108 -109.781180 -171.183283 0.397471 179.999964 -0.000006 -0.644000 104.136759 -6.834686 -6.218539 0.000003 0.000000 1.499869 73.532635 8.418597 -2.686560 25.456960 -7.355615 0.000001 -107.669053 166.270888 -1.776824 -0.000022 -0.000004 -0.286477 -79.296085 7.358446 8.977005 -0.000004 0.000003 -0.147024 77.908655 -7.622622 1.076608 25.456856 7.355627 0.000009 
52.898705 -4.743519 63.600510 42.597168 -6.115344 -5.067126 0.992838 0.716809 0.546516 5.982069 1.456896 1.080321 7.627242 1.469707 1.062801 -7.734297 21.909633 -0.549221 13.807184 -18.135752 -2.484412 -9.215094 -37.237525 -9.253159 137.889143 -41.643329 75.118564 0.000004 0.000015 -0.000007 51.253070 -8.306802 12.956411 0.000000 0.000007 -2.999990 -5.000205 -7.999251 0.000019 -16.651841 56.961080 19.634856 -70.106756 132.553577 131.759595 -0.000000 -0.000003 0.000014 66.058769 14.082647 -15.369947 -0.000004 -0.000008 2.999998 -5.000155 8.000110 -0.000107 -109.668147 -171.168338 0.380950 179.999964 -0.000004 -0.640994 104.256294 -6.875392 -6.230172 0.000002 0.000000 1.491798 73.556254 8.416404 -2.685252 25.456960 -7.355615 0.000002 -107.549053 166.270136 -1.762894 -0.000022 -0.000004 -0.285953 -79.173142 7.422380 8.981449 -0.000003 0.000003 -0.131528 77.935553 -7.628049 1.099642 25.456853 7.355627 0.000009 
52.908405 -4.791067 63.673218 42.630800 -6.120270 -5.069010 0.994505 0.712702 0.545616 5.985442 1.449836 1.079515 7.630622 1.462638 1.062069 -7.770825 21.887348 -0.541748 13.807268 -18.110644 -2.483615 -9.199713 -37.240124 -9.232559 137.809626 -41.540005 75.215703 0.000005 0.000013 -0.000004 51.158243 -8.506322 13.005431 0.000001 0.000005 -2.999989 -5.000203 -7.999250 0.000024 -16.672312 57.002078 19.659958 -70.068056 132.643599 131.527013 -0.000002 -0.000002 0.000011 65.948065 14.289954 -15.472646 -0.000005 -0.000008 2.999999 -5.000156 8.000110 -0.000107 -109.554185 -171.153407 0.364915 179.999964 -0.000003 -0.639000 104.376752 -6.916253 -6.241665 0.000002 -0.000000 1.483670 73.579169 8.414177 -2.683694 25.456957 -7.355615 0.000001 -107.428323 166.269836 -1.748926 -0.000021 -0.000003 -0.285426 -79.049420 7.486375 8.985589 -0.000002 0.000003 -0.116007 77.961692 -7.633533 1.122721 25.456851 7.355628 0.000008 
52.911804 -4.857187 63.764015 42.664015 -6.125037 -5.070799 0.995991 0.708608 0.544689 5.988451 1.442707 1.078576 7.633629 1.455511 1.061226 -7.808474 21.865797 -0.533653 13.808179 -18.086548 -2.482242 -9.184230 -37.242918 -9.211863 137.730915 -41.431955 75.323511 0.000006 0.000015 -0.000008 51.055463 -8.710668 13.054490 -0.000001 0.000007 -2.999986 -5.000204 -7.999251 0.000019 -16.691910 57.042673 19.684001 -70.026904 132.735000 131.285798 -0.000001 -0.000003 0.000015 65.834855 14.501299 -15.576397 -0.000005 -0.000008 3.000001 -5.000156 8.000113 -0.000112 -109.439745 -171.138641 0.347595 179.999964 -0.000003 -0.637004 104.497858 -6.957128 -6.253000 0.000001 -0.000000 1.475480 73.601449 8.411793 -2.681414 25.456957 -7.355615 0.000001 -107.307101 166.270150 -1.734202 -0.000023 -0.000003 -0.284898 -78.924823 7.550533 8.989418 -0.000004 0.000003 -0.100455 77.987155 -7.639036 1.145758 25.456858 7.355628 0.000009 
52.912498 -4.911179 63.859718 42.697124 -6.129696 -5.072495 0.997227 0.704559 0.543732 5.990963 1.435540 1.077495 7.636148 1.448337 1.060223 -7.847536 21.845269 -0.524746 13.810295 -18.064122 -2.480053 -9.168697 -37.246029 -9.191123 137.652682 -41.319076 75.442595 0.000005 0.000014 -0.000006 50.943372 -8.920277 13.103612 -0.000001 0.000006 -2.999988 -5.000209 -7.999249 0.000023 -16.710428 57.082818 19.706718 -69.983129 132.827549 131.035704 -0.000001 -0.000003 0.000014 65.718899 14.716484 -15.680861 -0.000006 -0.000010 3.000001 -5.000160 8.000111 -0.000112 -109.325101 -171.124297 0.330978 179.999964 -0.000005 -0.634001 104.619660 -6.997443 -6.262276 0.000002 -0.000000 1.467220 73.623251 8.409124 -2.678335 25.456960 -7.355615 0.000002 -107.185810 166.270970 -1.720258 -0.000022 -0.000003 -0.284369 -78.799496 7.614849 8.992835 -0.000003 0.000003 -0.084869 78.012051 -7.644547 1.168857 25.456849 7.355628 0.000008 
52.916103 -4.972794 63.942616 42.730418 -6.134300 -5.074181 0.998166 0.700585 0.542741 5.992877 1.428374 1.076218 7.638053 1.441154 1.059036 -7.888323 21.826339 -0.514790 13.814035 -18.043732 -2.476819 -9.153123 -37.249734 -9.170374 137.574408 -41.202167 75.572819 0.000006 0.000013 -0.000006 50.820446 -9.135581 13.152673 0.000000 0.000008 -2.999995 -5.000207 -7.999250 0.000021 -16.727547 57.122341 19.727763 -69.936561 132.920945 130.776608 -0.000002 -0.000003 0.000014 65.600333 14.935105 -15.786017 -0.000003 -0.000008 2.999999 -5.000155 8.000114 -0.000109 -109.210606 -171.110500 0.312473 179.999964 -0.000005 -0.630996 104.741757 -7.037609 -6.272491 0.000002 0.000000 1.458889 73.644739 8.406032 -2.673994 25.456957 -7.355613 0.000002 -107.064650 166.272541 -1.705320 -0.000024 -0.000005 -0.283839 -78.673548 7.679300 8.995951 -0.000003 0.000004 -0.069242 78.036311 -7.650132 1.192010 25.456851 7.355629 0.000008 
52.924202 -5.037766 64.024323 42.764129 -6.138914 -5.075762 0.998722 0.696721 0.541710 5.994031 1.421221 1.074720 7.639215 1.433995 1.057626 -7.931107 21.809199 -0.503610 13.819792 -18.026034 -2.472313 -9.137527 -37.254020 -9.149666 137.497760 -41.078964 75.717831 0.000007 0.000014 -0.000006 50.685072 -9.356834 13.201319 0.000002 0.000008 -2.999988 -5.000209 -7.999247 0.000019 -16.743090 57.161160 19.746897 -69.888108 133.014697 130.509629 -0.000002 -0.000003 0.000014 65.478783 15.157160 -15.891596 -0.000008 -0.000008 3.000003 -5.000157 8.000110 -0.000106 -109.096583 -171.097454 0.293165 179.999964 -0.000003 -0.629000 104.864017 -7.076921 -6.281693 0.000002 -0.000001 1.450489 73.665865 8.402464 -2.668094 25.456960 -7.355616 0.000003 -106.943926 166.274890 -1.689728 -0.000022 -0.000004 -0.283306 -78.546923 7.743982 8.998752 -0.000004 0.000004 -0.053572 78.060053 -7.655797 1.215420 25.456851 7.355627 0.000009 
52.927803 -5.099400 64.115425 42.798652 -6.143575 -5.077229 0.998840 0.692994 0.540634 5.994324 1.414129 1.072977 7.639499 1.426887 1.055962 -7.976176 21.794210 -0.490987 13.827915 -18.011574 -2.466300 -9.121952 -37.259218 -9.129044 137.422013 -40.950160 75.877282 0.000006 0.000016 -0.000008 50.535818 -9.584618 13.249601 -0.000002 0.000008 -2.999989 -5.000205 -7.999252 0.000022 -16.756722 57.199023 19.763740 -69.835658 133.109322 130.232023 0.000000 -0.000004 0.000011 65.354358 15.382184 -15.997577 -0.000006 -0.000008 3.000000 -5.000154 8.000110 -0.000110 -108.983448 -171.085283 0.272177 179.999964 -0.000003 -0.625995 104.986530 -7.115438 -6.288901 0.000003 0.000000 1.442009 73.686888 8.398232 -2.660179 25.456957 -7.355615 0.000002 -106.824022 166.278018 -1.673835 -0.000020 -0.000004 -0.282771 -78.419813 7.808862 9.001352 -0.000003 0.000003 -0.037852 78.083358 -7.661481 1.238902 25.456854 7.355628 0.000009 
52.934803 -5.158615 64.196320 42.834203 -6.148351 -5.078568 0.998463 0.689436 0.539511 5.993617 1.407128 1.070929 7.638786 1.419852 1.054003 -8.023873 21.781974 -0.476679 13.838867 -18.000818 -2.458565 -9.106396 -37.265403 -9.108546 137.347058 -40.815752 76.052005 0.000006 0.000014 -0.000006 50.371218 -9.819285 13.297222 0.000001 0.000006 -2.999992 -5.000208 -7.999251 0.000024 -16.768283 57.235961 19.778063 -69.780990 133.203770 129.946179 -0.000000 -0.000004 0.000015 65.226756 15.610136 -16.103788 -0.000008 -0.000009 3.000000 -5.000158 8.000110 -0.000108 -108.871528 -171.074245 0.249503 179.999964 -0.000004 -0.623003 105.108852 -7.152920 -6.296187 0.000002 -0.000000 1.433450 73.707952 8.393195 -2.649983 25.456957 -7.355616 0.000004 -106.705286 166.282021 -1.657817 -0.000020 -0.000004 -0.282235 -78.292164 7.873999 9.003544 -0.000002 0.000003 -0.022079 78.106246 -7.667233 1.262547 25.456853 7.355629 0.000009 
